<svg width="73" height="37" viewBox="0 0 73 37" fill="none" xmlns="http://www.w3.org/2000/svg">
<g clip-path="url(#clip0_151_138)">
<path d="M6.476 18.5021C7.91 18.5021 9.191 18.0321 10.202 17.2151L10.566 18.0851H13.855V5.7781H10.685L10.249 6.7301C9.23 5.8901 7.93 5.4061 6.476 5.4061C2.699 5.4061 0 8.1191 0 11.9321C0 15.7571 2.7 18.5021 6.476 18.5021ZM7.044 14.7481C5.451 14.7481 4.28 13.5481 4.28 11.9411C4.28 10.3431 5.441 9.1441 7.044 9.1441C8.638 9.1441 9.809 10.3441 9.809 11.9411C9.809 13.5481 8.638 14.7481 7.044 14.7481ZM22.466 18.5021C26.114 18.5021 28.544 16.2591 28.544 12.8151V5.7901H24.29V12.6301C24.29 13.9161 23.603 14.6941 22.466 14.6941C21.33 14.6941 20.629 13.9291 20.629 12.6301V5.7901H16.375V12.8151C16.375 16.2591 18.818 18.5021 22.466 18.5021ZM36.827 18.5151C38.266 18.5151 39.547 18.0271 40.552 17.1851L40.953 18.0991H44.101V1.3461H39.896V6.2411C38.9732 5.67458 37.9098 5.37867 36.827 5.3871C33.037 5.3871 30.338 8.1191 30.338 11.9441C30.338 15.7701 33.037 18.5151 36.827 18.5151ZM37.397 14.7611C35.803 14.7611 34.632 13.5511 34.632 11.9451C34.632 10.3371 35.802 9.1281 37.396 9.1281C38.99 9.1281 40.161 10.3381 40.161 11.9451C40.161 13.5521 38.991 14.7611 37.397 14.7611ZM50.99 4.2501V0.6521H46.8V4.2501H50.99ZM51.022 18.0981V5.7901H46.77V18.0981H51.024H51.022ZM59.902 18.5021C63.916 18.5021 66.827 15.7471 66.827 11.9441C66.827 8.1291 63.916 5.3871 59.903 5.3871C55.876 5.3871 52.978 8.1291 52.978 11.9441C52.978 15.7471 55.875 18.5021 59.902 18.5021ZM69.662 8.9291C70.125 8.9291 70.515 8.7731 70.834 8.4631C71.152 8.1531 71.312 7.7631 71.312 7.2901C71.312 6.8271 71.152 6.4381 70.834 6.1241C70.6809 5.9703 70.4982 5.84917 70.2969 5.76804C70.0956 5.68691 69.88 5.64747 69.663 5.6521C69.2 5.6521 68.807 5.8091 68.484 6.1241C68.3267 6.27411 68.2024 6.45529 68.119 6.65606C68.0357 6.85683 67.9952 7.07277 68 7.2901C68 7.7621 68.161 8.1531 68.484 8.4631C68.807 8.7731 69.199 8.9291 69.662 8.9291ZM59.902 14.6941C58.352 14.6941 57.239 13.5721 57.239 11.9441C57.239 10.3171 58.352 9.1961 59.903 9.1961C61.453 9.1961 62.566 10.3271 62.566 11.9451C62.566 13.5721 61.453 14.6941 59.902 14.6941ZM20.226 36.5541V31.7081C21.1357 32.2507 22.1768 32.5333 23.236 32.5251C27.013 32.5251 29.712 29.7901 29.712 25.9551C29.712 22.1201 27.012 19.3971 23.237 19.3971C21.769 19.3971 20.462 19.9031 19.447 20.7781L18.914 19.8011H16.021V36.5541H20.226ZM22.668 28.7711C21.074 28.7711 19.903 27.5711 19.903 25.9551C19.903 24.3381 21.074 23.1381 22.668 23.1381C24.261 23.1381 25.432 24.3381 25.432 25.9551C25.432 27.5721 24.252 28.7711 22.668 28.7711ZM35.918 32.1091V25.5361C35.918 23.9561 36.72 23.0461 38.008 23.0461C39.118 23.0461 39.618 23.7701 39.618 25.1901V32.1091H43.871V24.6971C43.871 21.5071 42.049 19.4371 39.214 19.4371C38.0135 19.4422 36.8506 19.8563 35.917 20.6111V15.3561H31.664V32.1091H35.918ZM50.636 18.2601V14.6621H46.447V18.2601H50.636ZM50.669 32.1091V19.8001H46.415V32.1091H50.669ZM57.598 32.1091V15.3561H53.344V32.1091H57.6H57.598ZM66.262 32.5131C69.361 32.5131 71.859 30.7581 72.728 27.9491H68.495C68.086 28.6691 67.255 29.1031 66.262 29.1031C64.919 29.1031 64.019 28.3731 63.742 26.9611H72.912C72.967 26.5811 72.999 26.2091 72.999 25.8391C72.999 22.2281 70.243 19.3971 66.262 19.3971C62.386 19.3971 59.554 22.1721 59.554 25.9451C59.554 29.7051 62.409 32.5131 66.262 32.5131ZM68.809 24.6131H63.816C64.16 23.3911 65.022 22.7191 66.262 22.7191C67.546 22.7191 68.435 23.3831 68.809 24.6131Z" fill="#ADADAD"/>
</g>
<defs>
<clipPath id="clip0_151_138">
<rect width="73" height="36" fill="white" transform="translate(0 0.6521)"/>
</clipPath>
</defs>
</svg>
