<svg width="90" height="21" viewBox="0 0 90 21" fill="none" xmlns="http://www.w3.org/2000/svg">
<g clip-path="url(#clip0_151_144)">
<path fill-rule="evenodd" clip-rule="evenodd" d="M5 10.6521C6.32608 10.6521 7.59785 11.1789 8.53553 12.1166C9.47322 13.0542 10 14.326 10 15.6521C10 16.9782 9.47322 18.25 8.53553 19.1876C7.59785 20.1253 6.32608 20.6521 5 20.6521C3.67392 20.6521 2.40215 20.1253 1.46447 19.1876C0.526784 18.25 0 16.9782 0 15.6521C0 14.326 0.526784 13.0542 1.46447 12.1166C2.40215 11.1789 3.67392 10.6521 5 10.6521ZM15 0.6521C16.3261 0.6521 17.5979 1.17888 18.5355 2.11657C19.4732 3.05425 20 4.32602 20 5.6521C20 6.97818 19.4732 8.24995 18.5355 9.18763C17.5979 10.1253 16.3261 10.6521 15 10.6521C13.6739 10.6521 12.4021 10.1253 11.4645 9.18763C10.5268 8.24995 10 6.97818 10 5.6521C10 4.32602 10.5268 3.05425 11.4645 2.11657C12.4021 1.17888 13.6739 0.6521 15 0.6521ZM31.515 18.9921V10.6161C31.741 10.3231 32.015 10.1031 32.339 9.9561C32.663 9.8101 33.028 9.7361 33.434 9.7361C34.021 9.7361 34.492 9.9411 34.846 10.3501C35.199 10.7581 35.376 11.2951 35.376 11.9581V18.9921H39.034V11.4491C39.0336 11.1861 39.0186 10.9234 38.989 10.6621C39.23 10.3691 39.516 10.1421 39.847 9.9791C40.178 9.8171 40.547 9.7371 40.954 9.7371C41.541 9.7371 42.011 9.9411 42.365 10.3501C42.719 10.7581 42.895 11.2951 42.895 11.9581V18.9921H46.554V11.4491C46.554 10.0141 46.121 8.8341 45.255 7.9091C44.39 6.9831 43.279 6.5201 41.925 6.5201C41.142 6.5201 40.419 6.6671 39.757 6.9601C39.1016 7.24825 38.5163 7.67465 38.041 8.2101C37.635 7.68546 37.1135 7.26149 36.517 6.9711C35.8874 6.66619 35.1955 6.51212 34.496 6.5211C33.939 6.5211 33.408 6.6051 32.904 6.7751C32.399 6.9451 31.937 7.1991 31.515 7.5381V6.7521H27.857V18.9921H31.515ZM54.683 19.2231C55.676 19.2231 56.568 19.0771 57.358 18.7831C58.148 18.4911 58.92 18.0201 59.673 17.3731L57.257 15.1741C56.971 15.4671 56.625 15.6941 56.218 15.8571C55.786 16.0238 55.326 16.1063 54.863 16.1001C54.171 16.1001 53.569 15.9181 53.057 15.5561C52.555 15.2063 52.163 14.7207 51.927 14.1561H60.441V13.2301C60.4486 12.3198 60.2956 11.4153 59.989 10.5581C59.688 9.7331 59.27 9.0271 58.736 8.4411C58.2005 7.85381 57.5514 7.38128 56.828 7.0521C56.0694 6.70826 55.2448 6.53454 54.412 6.5431C53.539 6.5431 52.722 6.7051 51.962 7.0291C51.2205 7.34024 50.5486 7.79652 49.986 8.3711C49.4202 8.95538 48.9717 9.64281 48.665 10.3961C48.3393 11.1846 48.1741 12.03 48.179 12.8831C48.179 13.7631 48.349 14.5921 48.687 15.3711C49.0113 16.1284 49.4793 16.8158 50.065 17.3951C50.658 17.9751 51.3603 18.4315 52.131 18.7381C52.942 19.0643 53.8089 19.229 54.683 19.2231ZM56.85 11.5411H51.86C52.04 10.9241 52.35 10.4461 52.786 10.1071C53.222 9.7671 53.742 9.5971 54.344 9.5971C54.931 9.5971 55.447 9.7751 55.891 10.1301C56.335 10.4851 56.655 10.9551 56.851 11.5411H56.85ZM68.118 19.2231C69.112 19.2231 70.003 19.0771 70.794 18.7831C71.584 18.4911 72.356 18.0201 73.108 17.3731L70.692 15.1741C70.406 15.4671 70.06 15.6941 69.653 15.8571C69.2213 16.0237 68.7617 16.1061 68.299 16.1001C67.606 16.1001 67.004 15.9181 66.492 15.5561C65.9903 15.2061 65.5987 14.7205 65.363 14.1561H73.876V13.2301C73.8836 12.3198 73.7306 11.4153 73.424 10.5581C73.124 9.7331 72.706 9.0271 72.171 8.4411C71.6355 7.85381 70.9864 7.38128 70.263 7.0521C69.5044 6.70826 68.6798 6.53454 67.847 6.5431C66.974 6.5431 66.157 6.7051 65.397 7.0291C64.6555 7.34024 63.9836 7.79652 63.421 8.3711C62.8555 8.95546 62.4074 9.64289 62.101 10.3961C61.7753 11.1846 61.6101 12.03 61.615 12.8831C61.615 13.7631 61.785 14.5921 62.123 15.3711C62.447 16.1284 62.9146 16.8157 63.5 17.3951C64.093 17.9751 64.7953 18.4315 65.566 18.7381C66.377 19.0643 67.2439 19.229 68.118 19.2231ZM70.286 11.5411H65.296C65.476 10.9241 65.785 10.4461 66.221 10.1071C66.658 9.7671 67.177 9.5971 67.779 9.5971C68.366 9.5971 68.882 9.7751 69.326 10.1301C69.77 10.4851 70.09 10.9551 70.286 11.5411ZM81.621 19.1541C81.967 19.1541 82.396 19.1191 82.908 19.0501C83.3366 18.9987 83.7599 18.9096 84.173 18.7841V15.7521C83.872 15.8441 83.593 15.9101 83.337 15.9481C83.0678 15.9877 82.7961 16.0071 82.524 16.0061C81.937 16.0061 81.527 15.8941 81.294 15.6711C81.06 15.4471 80.944 15.0651 80.944 14.5251V9.8751H84.286V6.7521H80.944V2.7951L77.286 3.6051V6.7521H74.87V9.8751H77.286V15.2671C77.286 16.5471 77.651 17.5151 78.381 18.1711C79.111 18.8261 80.191 19.1541 81.621 19.1541ZM87.663 5.9291C88.125 5.9291 88.516 5.7731 88.835 5.4631C89.153 5.1531 89.313 4.7631 89.313 4.2901C89.313 3.8271 89.153 3.4381 88.835 3.1241C88.6818 2.97018 88.4989 2.84898 88.2974 2.76784C88.096 2.68671 87.8801 2.64733 87.663 2.6521C87.2 2.6521 86.807 2.8091 86.484 3.1241C86.3267 3.27411 86.2024 3.45529 86.119 3.65606C86.0357 3.85683 85.9952 4.07277 86 4.2901C86 4.7621 86.161 5.1531 86.484 5.4631C86.807 5.7731 87.2 5.9291 87.663 5.9291Z" fill="#ADADAD"/>
</g>
<defs>
<clipPath id="clip0_151_144">
<rect width="90" height="20" fill="white" transform="translate(0 0.6521)"/>
</clipPath>
</defs>
</svg>
