<svg width="114" height="21" viewBox="0 0 114 21" fill="none" xmlns="http://www.w3.org/2000/svg">
<g clip-path="url(#clip0_151_140)">
<path d="M22.887 20.6521C23.725 20.6521 24.463 20.4691 25.1 20.1021C25.7251 19.7459 26.2655 19.2583 26.684 18.6731V20.3111H29.879V0.6521H26.684V8.8431C26.2693 8.25288 25.7282 7.76264 25.1 7.4081C24.463 7.0461 23.725 6.8641 22.887 6.8641C21.936 6.8641 21.045 7.0441 20.217 7.4021C19.387 7.7601 18.656 8.2561 18.023 8.8891C17.3922 9.51968 16.8878 10.2651 16.537 11.0851C16.1761 11.9297 15.9933 12.8397 16 13.7581C16 14.7111 16.179 15.6021 16.537 16.4321C16.895 17.2621 17.39 17.9941 18.023 18.6271C18.6524 19.2584 19.3968 19.7635 20.216 20.1151C21.046 20.4731 21.936 20.6521 22.887 20.6521ZM22.927 17.5721C22.282 17.5775 21.6486 17.4003 21.1 17.0611C20.5359 16.7155 20.071 16.2295 19.7508 15.6506C19.4306 15.0717 19.266 14.4196 19.273 13.7581C19.273 13.0501 19.439 12.4081 19.771 11.8321C20.09 11.2685 20.5443 10.7932 21.093 10.4491C21.642 10.104 22.2786 9.92422 22.927 9.9311C23.599 9.9311 24.199 10.1011 24.727 10.4421C25.255 10.7831 25.667 11.2441 25.964 11.8251C26.261 12.4061 26.409 13.0501 26.409 13.7581C26.409 14.4581 26.261 15.0981 25.964 15.6781C25.6843 16.2403 25.2597 16.7177 24.734 17.0611C24.21 17.4011 23.607 17.5721 22.927 17.5721ZM39.294 20.6521C40.088 20.6521 40.78 20.4711 41.369 20.1081C41.9514 19.7524 42.4424 19.2654 42.803 18.6861L42.933 20.3111H46.142V7.2051H42.947L43.091 8.8831C42.6078 8.28628 42.0144 7.7879 41.343 7.4151C40.658 7.0301 39.879 6.8381 39.006 6.8381C38.072 6.8381 37.199 7.0131 36.387 7.3621C35.5848 7.70526 34.856 8.19919 34.24 8.8171C33.62 9.4371 33.14 10.1581 32.8 10.9801C32.4567 11.8155 32.283 12.7109 32.289 13.6141C32.2821 14.5362 32.4591 15.4504 32.8097 16.3033C33.1603 17.1561 33.6775 17.9305 34.331 18.5811C34.9742 19.2256 35.7345 19.7415 36.571 20.1011C37.417 20.4691 38.325 20.6521 39.294 20.6521ZM39.385 17.5721C38.7466 17.5741 38.1198 17.4019 37.572 17.0741C37.0108 16.7441 36.5334 16.2889 36.177 15.7441C35.8118 15.1927 35.5873 14.5603 35.523 13.9021C35.462 13.1681 35.58 12.5021 35.876 11.9041C36.1599 11.3203 36.5967 10.8244 37.14 10.4691C37.6903 10.1092 38.3355 9.92182 38.993 9.9311C39.6263 9.92259 40.2487 10.0954 40.787 10.4291C41.319 10.7611 41.755 11.2051 42.096 11.7591C42.436 12.3141 42.637 12.9321 42.698 13.6141C42.751 14.3391 42.644 15.0011 42.378 15.6001C42.1284 16.1781 41.7226 16.6751 41.206 17.0351C40.69 17.3931 40.084 17.5721 39.386 17.5721H39.385ZM53.763 20.3121V10.4021H56.303V7.2051H53.763V3.0901H50.568V7.2051H48.63V10.4031H50.568V20.3111L53.763 20.3121ZM65.036 20.6521C65.831 20.6521 66.522 20.4711 67.112 20.1081C67.694 19.7523 68.1847 19.2653 68.545 18.6861L68.676 20.3111H71.884V7.2051H68.69L68.835 8.8831C68.3515 8.28618 67.7577 7.7878 67.086 7.4151C66.401 7.0301 65.622 6.8381 64.749 6.8381C63.815 6.8381 62.942 7.0131 62.13 7.3621C61.3278 7.70526 60.599 8.19919 59.983 8.8171C59.363 9.4371 58.883 10.1581 58.543 10.9801C58.2 11.8156 58.0267 12.711 58.033 13.6141C58.0261 14.5362 58.2031 15.4504 58.5537 16.3033C58.9043 17.1561 59.4215 17.9305 60.075 18.5811C60.7179 19.2255 61.4778 19.7414 62.314 20.1011C63.161 20.4691 64.067 20.6521 65.036 20.6521ZM65.128 17.5721C64.4893 17.5742 63.8621 17.4021 63.314 17.0741C62.7531 16.744 62.2761 16.2888 61.92 15.7441C61.5545 15.1928 61.3296 14.5604 61.265 13.9021C61.205 13.1681 61.322 12.5021 61.619 11.9041C61.9027 11.3205 62.3391 10.8246 62.882 10.4691C63.4323 10.1092 64.0775 9.92182 64.735 9.9311C65.3683 9.92259 65.9907 10.0954 66.529 10.4291C67.061 10.7611 67.498 11.2051 67.839 11.7591C68.179 12.3141 68.379 12.9321 68.441 13.6141C68.493 14.3391 68.386 15.0011 68.12 15.6001C67.8704 16.1781 67.4646 16.6751 66.948 17.0351C66.433 17.3931 65.826 17.5721 65.128 17.5721ZM81.993 20.6521C82.953 20.6521 83.85 20.4721 84.683 20.1151C86.3445 19.4074 87.6664 18.0823 88.37 16.4191C88.7298 15.5693 88.9122 14.6549 88.906 13.7321C88.906 12.4651 88.596 11.3091 87.976 10.2651C87.3688 9.23378 86.5083 8.37463 85.476 7.7691C84.428 7.1491 83.267 6.8391 81.993 6.8391C81.173 6.8391 80.446 7.0241 79.813 7.3951C79.1867 7.76038 78.6445 8.25381 78.222 8.8431V0.6521H75.027V20.3121H78.222V18.6471C78.6442 19.2363 79.186 19.7297 79.812 20.0951C80.446 20.4661 81.173 20.6521 81.993 20.6521ZM81.953 17.5591C81.29 17.5591 80.697 17.3891 80.173 17.0481C79.6469 16.7048 79.222 16.2274 78.942 15.6651C78.641 15.0657 78.4884 14.4028 78.497 13.7321C78.497 13.0421 78.645 12.4061 78.942 11.8251C79.2227 11.2617 79.6469 10.7822 80.172 10.4351C80.701 10.0886 81.3217 9.90847 81.954 9.9181C82.626 9.9181 83.241 10.0881 83.8 10.4291C84.358 10.7701 84.804 11.2311 85.135 11.8121C85.467 12.3921 85.633 13.0331 85.633 13.7321C85.633 14.4401 85.467 15.0821 85.135 15.6591C84.8146 16.2237 84.3576 16.6989 83.806 17.0411C83.2506 17.3866 82.6071 17.5663 81.953 17.5591ZM92.874 5.2521C93.337 5.2521 93.728 5.0971 94.047 4.7871C94.365 4.4771 94.525 4.0861 94.525 3.6141C94.525 3.1511 94.365 2.7621 94.047 2.4481C93.8938 2.29418 93.7109 2.17298 93.5094 2.09184C93.308 2.01071 93.0921 1.97133 92.875 1.9761C92.412 1.9761 92.019 2.1331 91.696 2.4481C91.5387 2.59811 91.4144 2.77929 91.331 2.98006C91.2477 3.18083 91.2072 3.39677 91.212 3.6141C91.212 4.0861 91.373 4.4771 91.696 4.7871C92.019 5.0971 92.411 5.2521 92.874 5.2521ZM111.874 10.2521C112.337 10.2521 112.728 10.0971 113.047 9.7871C113.365 9.4771 113.525 9.0861 113.525 8.6141C113.525 8.1511 113.365 7.7621 113.047 7.4481C112.894 7.29418 112.711 7.17298 112.509 7.09184C112.308 7.01071 112.092 6.97133 111.875 6.9761C111.412 6.9761 111.019 7.1331 110.696 7.4481C110.539 7.59811 110.414 7.77929 110.331 7.98006C110.248 8.18083 110.207 8.39677 110.212 8.6141C110.212 9.0861 110.373 9.4771 110.696 9.7871C111.019 10.0971 111.411 10.2521 111.874 10.2521ZM6.979 19.9761C8.814 19.9761 10.364 19.3601 11.629 18.1301C12.893 16.9001 13.525 15.3481 13.525 13.4761C13.525 11.6381 12.893 10.0961 11.628 8.8481C10.364 7.6001 8.814 6.9761 6.978 6.9761C5.143 6.9761 3.585 7.6001 2.303 8.8481C1.021 10.0961 0.380005 11.6381 0.380005 13.4761C0.380005 15.3481 1.02 16.8991 2.302 18.1301C3.584 19.3601 5.143 19.9761 6.979 19.9761ZM94.459 20.3111V7.2051H91.264V20.3121L94.459 20.3111ZM108.858 20.3111V17.1131H102.285L108.858 10.4031V7.2051H97.675V10.4031H104.261L97.675 17.1131V20.3111H108.858Z" fill="#ADADAD"/>
</g>
<defs>
<clipPath id="clip0_151_140">
<rect width="114" height="20" fill="white" transform="translate(0 0.6521)"/>
</clipPath>
</defs>
</svg>
