<svg width="83" height="25" viewBox="0 0 83 25" fill="none" xmlns="http://www.w3.org/2000/svg">
<g clip-path="url(#clip0_151_142)">
<path d="M35.276 17.7951V12.4121C35.276 11.9021 35.417 11.4871 35.7 11.1661C35.982 10.8451 36.356 10.6841 36.823 10.6841C37.311 10.6841 37.693 10.8481 37.971 11.1741C38.248 11.5001 38.386 11.9571 38.386 12.5441V17.7941H40.624V12.4121C40.624 12.0721 40.689 11.7721 40.818 11.5121C40.947 11.2511 41.126 11.0481 41.357 10.9021C41.587 10.7571 41.859 10.6841 42.171 10.6841C42.66 10.6841 43.042 10.8481 43.319 11.1741C43.596 11.5001 43.735 11.9571 43.735 12.5441V17.7941H45.973V11.9521C45.973 10.9811 45.713 10.1951 45.195 9.5941C44.677 8.9941 43.91 8.6941 42.895 8.6941C42.303 8.6941 41.764 8.8241 41.279 9.0841C40.793 9.3441 40.406 9.7081 40.119 10.1741L40.181 10.0781L40.144 10.0081C39.9678 9.70934 39.7344 9.44833 39.457 9.2401L39.312 9.1371C38.865 8.8411 38.292 8.6931 37.596 8.6931C36.987 8.6931 36.437 8.8271 35.946 9.0961C35.619 9.2761 35.336 9.4971 35.098 9.7621L34.996 9.8821V8.9071H33.021V17.7941L35.276 17.7951ZM50.581 18.0421C51.349 18.0421 51.984 17.9091 52.486 17.6421C52.876 17.4361 53.246 17.1281 53.595 16.7211L53.609 16.7031V17.7951H55.567V12.3641C55.567 11.9581 55.551 11.5911 55.518 11.2611C55.4795 10.9147 55.3731 10.5793 55.205 10.2741C54.9138 9.70158 54.4218 9.25652 53.823 9.0241C53.214 8.7821 52.517 8.6611 51.733 8.6611C50.663 8.6611 49.818 8.8911 49.199 9.3521C48.5913 9.79512 48.1458 10.4254 47.931 11.1461L49.956 11.7881C50.098 11.3821 50.348 11.1001 50.704 10.9401C51.061 10.7811 51.404 10.7021 51.733 10.7021C52.325 10.7021 52.748 10.8251 53 11.0721C53.177 11.2451 53.292 11.4861 53.345 11.7961L53.36 11.9121L53.003 11.9651L52.637 12.0201L52.284 12.0721C51.708 12.1571 51.193 12.2461 50.737 12.3391C50.282 12.4331 49.89 12.5391 49.561 12.6601C49.083 12.8361 48.703 13.0541 48.421 13.3141C48.138 13.5751 47.934 13.8751 47.808 14.2151C47.6779 14.5767 47.6135 14.9588 47.618 15.3431C47.618 15.8361 47.732 16.2881 47.96 16.6961C48.188 17.1051 48.522 17.4311 48.964 17.6761C49.406 17.9201 49.944 18.0421 50.581 18.0421ZM51.058 16.2811C50.8 16.2811 50.578 16.2421 50.392 16.1661C50.2185 16.0993 50.0683 15.9832 49.96 15.8321C49.8558 15.6783 49.8023 15.4958 49.807 15.3101C49.807 15.1621 49.839 15.0271 49.902 14.9071C49.965 14.7861 50.064 14.6751 50.198 14.5731C50.333 14.4721 50.51 14.3771 50.729 14.2891C50.921 14.2191 51.143 14.1521 51.396 14.0921C51.648 14.0321 51.98 13.9641 52.391 13.8901C52.648 13.8441 52.955 13.7901 53.311 13.7301L53.341 13.7261V13.7331C53.3375 13.8441 53.3328 13.9552 53.327 14.0661L53.317 14.2521C53.297 14.5731 53.231 14.8551 53.115 15.0961C53.055 15.2221 52.941 15.3781 52.774 15.5651C52.5811 15.7707 52.3524 15.9395 52.099 16.0631C51.817 16.2081 51.468 16.2811 51.058 16.2811ZM59.978 17.7951V13.5161L63.055 17.7951H65.968L62.545 13.3511L65.755 8.9081H62.99L59.978 13.1871V5.9461H57.707L57.69 17.7951H59.978ZM74.946 13.9771C75.039 12.9021 74.929 11.9671 74.616 11.1711C74.304 10.3751 73.821 9.7581 73.168 9.3191C72.516 8.8811 71.723 8.6611 70.79 8.6611C69.913 8.6611 69.136 8.8601 68.462 9.2581C67.7861 9.65642 67.2356 10.2364 66.873 10.9321C66.489 11.6511 66.297 12.4961 66.297 13.4671C66.297 14.3551 66.494 15.1441 66.886 15.8321C67.2699 16.5121 67.8339 17.073 68.516 17.4531C69.209 17.8461 70.011 18.0421 70.922 18.0421C71.778 18.0421 72.566 17.8171 73.288 17.3671C74.0053 16.9222 74.5606 16.2586 74.872 15.4741L72.633 14.8331C72.469 15.1951 72.23 15.4721 71.918 15.6631C71.605 15.8561 71.229 15.9521 70.79 15.9521C70.094 15.9521 69.566 15.7251 69.206 15.2721C68.958 14.9591 68.795 14.5561 68.718 14.0621L68.706 13.9771H74.946ZM72.681 12.3151H68.766L68.782 12.2391C68.859 11.9161 68.973 11.6391 69.127 11.4091L69.207 11.2991C69.566 10.8351 70.127 10.6031 70.889 10.6031C71.542 10.6031 72.012 10.8021 72.3 11.2001C72.477 11.4441 72.6 11.7851 72.668 12.2221L72.681 12.3151ZM79.051 17.7951V13.2521C79.051 12.9121 79.098 12.6061 79.191 12.3341C79.2787 12.0728 79.4189 11.8322 79.603 11.6271C79.784 11.4271 80.006 11.2661 80.27 11.1451C80.533 11.0191 80.828 10.9441 81.154 10.9191C81.481 10.8941 81.767 10.9201 82.014 10.9971V8.9071C81.7466 8.87443 81.4767 8.86774 81.208 8.8871C80.938 8.9061 80.678 8.9521 80.426 9.0271C80.18 9.09807 79.9445 9.20165 79.726 9.3351C79.446 9.4991 79.211 9.7081 79.019 9.9601C78.9421 10.0611 78.8713 10.1667 78.807 10.2761L78.772 10.3391V8.9081H76.797V17.7951H79.051ZM10.972 0.6521C16.438 0.6521 20.971 4.6491 21.806 9.8801C23.2923 11.5824 24.0766 13.7858 24.0001 16.0444C23.9236 18.303 22.9921 20.4482 21.3941 22.0462C19.796 23.6441 17.6507 24.5754 15.3921 24.6517C13.1335 24.728 10.9302 23.9436 9.228 22.4571C3.998 21.6221 0 17.0901 0 11.6231C0 5.5641 4.912 0.6521 10.97 0.6521H10.972ZM15.071 6.8231C13.2572 6.82609 11.4874 7.38234 9.99803 8.41759C8.50864 9.45284 7.37052 10.9178 6.73562 12.6169C6.10071 14.316 5.99925 16.1683 6.44477 17.9266C6.8903 19.6849 7.8616 21.2654 9.229 22.4571C10.1015 22.596 10.9874 22.6303 11.868 22.5591C10.3178 21.8272 9.06317 20.5891 8.31075 19.0488C7.55834 17.5085 7.35305 15.7578 7.7287 14.0852C8.10435 12.4126 9.03853 10.9178 10.3773 9.84717C11.7162 8.77651 13.3797 8.19382 15.094 8.1951C16.5221 8.1974 17.9203 8.60469 19.1262 9.36971C20.3322 10.1347 21.2964 11.2261 21.907 12.5171C21.6952 15.1093 20.5695 17.542 18.7306 19.3813C16.8917 21.2206 14.4592 22.3468 11.867 22.5591C13.2724 23.2223 14.8483 23.4352 16.3792 23.1688C17.9102 22.9023 19.3215 22.1696 20.4202 21.0706C21.5189 19.9717 22.2514 18.5602 22.5176 17.0292C22.7837 15.4982 22.5704 13.9223 21.907 12.5171C21.9791 11.6373 21.9445 10.752 21.806 9.8801C20.9684 8.91694 19.9343 8.14539 18.772 7.6179C17.6097 7.09041 16.3474 6.81933 15.071 6.8231Z" fill="#ADADAD"/>
</g>
<defs>
<clipPath id="clip0_151_142">
<rect width="83" height="24" fill="white" transform="translate(0 0.6521)"/>
</clipPath>
</defs>
</svg>
